<?xml version="1.0" encoding="UTF-8"?>
<!-- Generator: Adobe Illustrator 23.0.1, SVG Export Plug-In . SVG Version: 6.00 Build 0)  -->
<svg version="1.1" id="Layer_1" xmlns="http://www.w3.org/2000/svg" xmlns:xlink="http://www.w3.org/1999/xlink" x="0px" y="0px" viewBox="0 0 1920 1092" style="enable-background:new 0 0 1920 1092;" xml:space="preserve">
<style type="text/css">
	.st0{fill-rule:evenodd;clip-rule:evenodd;fill:url(#SVGID_1_);}
</style>
<title>شیپ باحال</title>
<desc>Created with Sketch.</desc>
<g>
	
		<linearGradient id="SVGID_1_" gradientUnits="userSpaceOnUse" x1="0.5005" y1="1085.9393" x2="0.5005" y2="1084.9722" gradientTransform="matrix(1920 0 0 1291 -1 -1400947)">
		<stop offset="0" style="stop-color:#008abd"/>
		<stop offset="1" style="stop-color:#22a8da"/>
	</linearGradient>
	<path class="st0" d="M1919.8,1009c0,0-0.1-1139.3,0.2-1257l0,0H0C0.2-103.8,0.1,665.8,0.1,757.7l0,9c27.7,11,47.7,30.8,62.2,56.3   c13.5,23.8,20.5,50.1,28,76.1c7.5,26.3,17.1,51.3,37.9,70.7c31.9,29.7,68.8,25.8,91.9-11c8.4-13.4,14.5-28.1,21.7-42.2   c33.1-64.8,83-108.2,156-121.4c26.4-4.8,52.9-2.1,79.3,2.5c22.1,3.9,44.3,7.6,66.9,8.2c32.5,0.8,60.2-10.1,82.8-33.3   c19.9-20.5,39.4-41.5,59.4-62c11.1-11.5,24.1-20.6,38.5-27.4c31.7-15,71.4-3.3,90.1,26.4c11.4,18.1,16.1,38.5,19.7,59.3   c3.3,19.1,5.9,38.5,10.5,57.3c13.3,54.3,50.4,77.6,105.4,67.2c27.8-5.2,51.9-18.2,74.9-33.8c19.4-13.2,38.7-26.7,58.5-39.3   c49.7-31.5,101-31.4,153.4-6.9c38.7,18.1,72.2,44.3,106.9,68.6c40.8,28.6,83.2,54.6,134,60.8c43.3,5.3,80.7-6.5,109.9-40.8   c14.6-17.1,29.6-33.9,45.4-49.8c33.8-33.8,72.5-38.5,114.8-15.6c38.9,21.1,64.1,55.2,88.3,90.5l1.5,2.2   c13.9,20.3,28.3,40,45.9,57.4C1894.2,996.6,1905.8,1004.7,1919.8,1009z M163,881.5c-15.5,9.1-30.5,4.4-38.5-11.5   c-4-8-5.7-16.5-3.9-25.3c5.5-27.1,12-54,24-79c9.1-19.1,24-31.7,46.3-32.9c25.4-1.4,45.9,15.1,45.9,36.8   c-0.2,9.4-2.7,18.4-7.9,26.1c-17,24.9-34.3,49.6-51.9,74C173.4,874.6,168.1,878.5,163,881.5z M1553.9,866.4   c-15.5,16.2-34.6,24.4-56.8,19.3c-43-9.8-81.1-29.9-114.2-59c-4.6-4-9.2-9-6.5-15.9c2.9-7.6,9.8-9.7,17.3-10.5   c14.9-1.5,26.8,5.7,37.9,14c20,14.8,40.8,16.8,63.3,6.5c11.1-5.1,22.6-9.5,35.5-11c14.3-0.1,25.1,6.8,31.1,20   C1567.6,843.4,1563.8,855.9,1553.9,866.4z M336.7,1007.5c9.2,13.8,23,16.3,34.2,4.3c17.7-18.9,38.9-31.7,61.9-42.8   c25.3-12.2,35.2-34.6,27.8-58.6c-7.8-25.3-33.3-41.6-59.7-38.6c-21.2,2.4-37.1,13.4-49.1,30.2c-15.3,21.5-23.1,45.6-23.8,70.8   C328.2,986,330,997.5,336.7,1007.5z M1164.3,972c25.2-0.1,47.1-21.8,46.7-46.4c-0.5-25.7-22.8-47.2-48.5-46.6   c-24.1,0.5-44.7,22.2-44.5,46.9C1118.2,952.3,1138.1,972.1,1164.3,972z M1691.5,1013.1c7.8,27.7,32.8,36.9,57.5,24.5   c13.8-7,20.8-21.6,18.6-38.9c-5.2-40.6-35.7-65.7-83.7-65.6c-11.4,0.3-26.1,3.1-38.9,12.1c-6.8,4.8-11.8,11.3-10.8,19.9   c1,8.9,9.3,10.4,16.1,11.6C1671.8,980.3,1685.2,990.6,1691.5,1013.1z"/>
</g>
</svg>