<?xml version="1.0" encoding="UTF-8"?>
<!-- Generator: Adobe Illustrator 23.0.1, SVG Export Plug-In . SVG Version: 6.00 Build 0)  -->
<svg version="1.1" id="Layer_1" xmlns="http://www.w3.org/2000/svg" xmlns:xlink="http://www.w3.org/1999/xlink" x="0px" y="0px" viewBox="0 0 1920 969" style="enable-background:new 0 0 1920 969;" xml:space="preserve">
<style type="text/css">
	.st0{opacity:0.1076;fill-rule:evenodd;clip-rule:evenodd;fill:url(#Path-2-Copy_1_);enable-background:new    ;}
	.st1{opacity:0.4684;fill-rule:evenodd;clip-rule:evenodd;fill:#00B8B7;enable-background:new    ;}
	.st2{fill-rule:evenodd;clip-rule:evenodd;fill:url(#Path-2_1_);}
</style>
<title>دپارتمان</title>
<desc>Created with Sketch.</desc>
<g id="header-bg" transform="translate(156.000000, 0.000000)">
	
		<linearGradient id="Path-2-Copy_1_" gradientUnits="userSpaceOnUse" x1="-155.5" y1="1024.6722" x2="-155.5" y2="1023.9073" gradientTransform="matrix(2157.9998 0 0 -1393.9999 336481.9688 1428369.875)">
		<stop offset="0" style="stop-color:#008abd"/>
		<stop offset="1" style="stop-color:#22a8da"/>
	</linearGradient>
	<path id="Path-2-Copy" class="st0" d="M1867.7,820.2c-290.9,183.8-652.2,212.5-1089.9,0c-278.6-135.2-603.1-322.7-938-316.8   c-5.4-41.8-7-351.2-4.8-928.4h2153.8c4.3,747.5,4.3,1122.5,0,1125C1950.7,753.1,1910.4,793.2,1867.7,820.2z"/>
	<path id="Path-2-Copy-2" class="st1" d="M1824.2,803.2c-290.9,183.8-652.2,212.5-1089.9,0c-278.6-135.2-603.1-322.7-938-316.8   c-5.4-41.8-7-351.2-4.8-928.4h2153.8c4.3,747.5,4.3,1122.5,0,1125C1907.3,736.1,1866.9,776.2,1824.2,803.2z"/>
	
		<linearGradient id="Path-2_1_" gradientUnits="userSpaceOnUse" x1="-155.5" y1="1024.6722" x2="-155.5" y2="1023.9073" gradientTransform="matrix(2157.9998 0 0 -1393.9999 336409.9688 1428330.875)">
		<stop offset="0" style="stop-color:#008abd"/>
		<stop offset="1" style="stop-color:#22a8da"/>
	</linearGradient>
	<path id="Path-2" class="st2" d="M1795.7,781.2c-290.9,183.8-652.2,212.5-1089.9,0c-278.6-135.2-603.1-322.7-938-316.8   c-5.4-41.8-7-351.2-4.8-928.4h2153.8c4.3,747.5,4.3,1122.5,0,1125C1878.7,714.1,1838.4,754.2,1795.7,781.2z"/>
</g>
</svg>