<svg xmlns="http://www.w3.org/2000/svg" width="43" height="43" viewBox="0 0 43 43"><defs><mask id="2yb4b" width="2" height="2" x="-1" y="-1"><path fill="#fff" d="M8 8h27v27H8z"/><path d="M21.5 35C28.956 35 35 28.956 35 21.5S28.956 8 21.5 8 8 14.044 8 21.5 14.044 35 21.5 35z"/></mask><filter id="2yb4a" width="67" height="67" x="-12" y="-12" filterUnits="userSpaceOnUse"><feOffset in="SourceGraphic" result="FeOffset1023Out"/><feGaussianBlur in="FeOffset1023Out" result="FeGaussianBlur1024Out" stdDeviation="4 4"/></filter></defs><g><g><g filter="url(#2yb4a)"><path fill="none" d="M21.5 35C28.956 35 35 28.956 35 21.5S28.956 8 21.5 8 8 14.044 8 21.5 14.044 35 21.5 35z" mask="url(&quot;#2yb4b&quot;)"/><path fill="#00b7b5" fill-opacity=".29" d="M21.5 35C28.956 35 35 28.956 35 21.5S28.956 8 21.5 8 8 14.044 8 21.5 14.044 35 21.5 35z"/></g><path fill="#00b7b5" d="M21.5 35C28.956 35 35 28.956 35 21.5S28.956 8 21.5 8 8 14.044 8 21.5 14.044 35 21.5 35z"/></g></g></svg>